<?xml version="1.0" encoding="UTF-8" standalone="no"?>
<!-- Created with Inkscape (http://www.inkscape.org/) -->

<svg
   xmlns:dc="http://purl.org/dc/elements/1.1/"
   xmlns:cc="http://creativecommons.org/ns#"
   xmlns:rdf="http://www.w3.org/1999/02/22-rdf-syntax-ns#"
   xmlns:svg="http://www.w3.org/2000/svg"
   xmlns="http://www.w3.org/2000/svg"
   xmlns:sodipodi="http://sodipodi.sourceforge.net/DTD/sodipodi-0.dtd"
   xmlns:inkscape="http://www.inkscape.org/namespaces/inkscape"
   width="14in"
   height="8.5in"
   viewBox="0 0 355.6 215.9"
   version="1.1"
   id="svg8"
   inkscape:version="0.92.2 (5c3e80d, 2017-08-06)"
   sodipodi:docname="dibujo.svg">
  <defs
     id="defs2" />
  <sodipodi:namedview
     id="base"
     pagecolor="#ffffff"
     bordercolor="#666666"
     borderopacity="1.0"
     inkscape:pageopacity="0.0"
     inkscape:pageshadow="2"
     inkscape:zoom="0.35"
     inkscape:cx="824.2902"
     inkscape:cy="673.76598"
     inkscape:document-units="mm"
     inkscape:current-layer="layer1"
     showgrid="false"
     inkscape:snap-page="false"
     showguides="true"
     inkscape:window-width="784"
     inkscape:window-height="821"
     inkscape:window-x="800"
     inkscape:window-y="0"
     inkscape:window-maximized="0"
     inkscape:measure-start="0,0"
     inkscape:measure-end="0,0"
     units="in"
     inkscape:guide-bbox="true" />
  <metadata
     id="metadata5">
    <rdf:RDF>
      <cc:Work
         rdf:about="">
        <dc:format>image/svg+xml</dc:format>
        <dc:type
           rdf:resource="http://purl.org/dc/dcmitype/StillImage" />
        <dc:title></dc:title>
      </cc:Work>
    </rdf:RDF>
  </metadata>
  <g
     inkscape:label="Capa 1"
     inkscape:groupmode="layer"
     id="layer1"
     transform="translate(0,-81.1)">
    <g
       id="g3761"
       transform="matrix(1,0,0,1.0139918,0,-4.1720039)"
       style="stroke-width:0.99307668;fill:#e6e6e6">
      <g
         style="stroke-width:0.68242669;fill:#e6e6e6"
         transform="matrix(0.99999999,0,0,2.117647,-0.14842182,139.88144)"
         id="g3757">
        <rect
           style="fill:#e6e6e6;fill-opacity:1;stroke-width:0.18055873"
           id="rect30"
           width="353.02979"
           height="102.05357"
           x="0.75595403"
           y="-27.303566" />
      </g>
    </g>
    <rect
       style="fill:#008080;fill-opacity:1;stroke-width:0.26458332"
       id="rect34"
       width="18.898808"
       height="219.13727"
       x="0.60753214"
       y="79.03833" />
    <rect
       y="78.949387"
       x="37.878681"
       height="220.64919"
       width="21.166664"
       id="rect38"
       style="fill:#008080;fill-opacity:1;stroke-width:0.26458335" />
    <rect
       style="fill:#008080;fill-opacity:1;stroke-width:0.26458335"
       id="rect3742"
       width="21.166664"
       height="220.64919"
       x="153.09392"
       y="78.949387" />
    <rect
       y="78.193428"
       x="114.68885"
       height="221.40512"
       width="21.166664"
       id="rect3744"
       style="fill:#008080;fill-opacity:1;stroke-width:0.26458329" />
    <rect
       style="fill:#008080;fill-opacity:1;stroke-width:0.26458335"
       id="rect3746"
       width="21.166664"
       height="220.64919"
       x="76.283768"
       y="78.949387" />
    <rect
       y="80.461288"
       x="191.49901"
       height="219.13727"
       width="21.166664"
       id="rect3748"
       style="fill:#008080;fill-opacity:1;stroke-width:0.26458332" />
    <rect
       style="fill:#008080;fill-opacity:1;stroke-width:0.26458332"
       id="rect3750"
       width="21.166664"
       height="219.13727"
       x="229.90407"
       y="80.461288" />
    <rect
       y="80.461288"
       x="268.3092"
       height="219.13727"
       width="21.166664"
       id="rect3752"
       style="fill:#008080;fill-opacity:1;stroke-width:0.26458332" />
    <rect
       style="fill:#008080;fill-opacity:1;stroke-width:0.26458332"
       id="rect3754"
       width="20.410711"
       height="219.13727"
       x="306.71426"
       y="80.461288" />
    <path
       sodipodi:type="star"
       style="fill:#6c5353;fill-opacity:1;stroke-width:0.34113979"
       id="path14"
       sodipodi:sides="25"
       sodipodi:cx="108.10119"
       sodipodi:cy="139.76192"
       sodipodi:r1="107.76681"
       sodipodi:r2="128.29382"
       sodipodi:arg1="0.7937313"
       sodipodi:arg2="0.91939501"
       inkscape:flatsided="false"
       inkscape:rounded="1.05"
       inkscape:randomized="0"
       d="m 183.66618,216.59691 c -18.92995,18.61706 23.33375,9.09103 2.21973,25.18874 -21.11402,16.09771 -0.73672,-22.13489 -23.70183,-8.8104 -22.96511,13.32448 20.33983,14.60828 -4.11419,24.94941 -24.45402,10.34113 4.79115,-21.62269 -20.76613,-14.42801 -25.55729,7.19468 16.06788,19.20765 -10.18961,23.14242 -26.25749,3.93477 10.01798,-19.75186 -16.52562,-19.13905 -26.543604,0.61281 10.78633,22.60012 -15.624771,19.8813 -26.411101,-2.71881 14.615331,-16.63995 -11.246753,-22.64752 -25.862083,-6.00757 4.827039,24.57256 -20.078166,15.37098 -24.905205,-9.20158 18.294351,-12.4825 -5.261206,-24.73296 -23.555557,-12.25047 -1.435557,25.00099 -23.269981,9.89483 -21.834423,-15.10616 20.823871,-7.54071 1.054923,-25.26434 -19.768948,-17.72362 -7.607952,23.85854 -24.999657,3.79696 -17.3917047,-20.06157 22.04495,-2.12512 7.304766,-24.20826 C 3.7275013,177.50786 5.1653743,220.80796 -6.6908272,197.05152 -18.547029,173.29507 15.190037,200.47551 6.4047972,175.42042 -2.3804423,150.36532 -11.75604,192.66266 -17.331769,166.70404 -22.907498,140.74543 3.0101537,175.46202 0.73186748,149.00928 -1.5464188,122.55653 -21.146383,161.1934 -20.091297,134.6637 -19.03621,108.134 -2.566473,148.20536 1.8053471,122.01709 6.1771672,95.828822 -22.415626,128.37753 -14.796019,102.9437 -7.1764117,77.509864 -1.1894435,120.41816 9.5577853,96.139876 20.305014,71.861587 -15.484018,96.276977 -1.7786577,73.537115 11.926702,50.797253 7.0547184,93.846409 23.502068,73.003595 39.949418,52.16078 -0.78709653,66.908745 18.142858,48.291682 37.072813,29.674619 21.648002,70.159694 42.762025,54.061985 63.876048,37.964275 20.751676,42.118146 43.716787,28.793661 66.681898,15.469175 41.673457,50.846342 66.127481,40.505216 90.581506,30.16409 47.77894,23.462865 73.336225,16.268183 98.893509,9.0735016 65.87281,37.119883 92.1303,33.185111 118.38779,29.250339 78.596473,12.11508 105.14007,11.502271 c 26.5436,-0.612809 -12.414542,18.34053 13.99656,21.059348 26.4111,2.718819 -7.86873,-23.7738034 17.99335,-17.766235 25.86208,6.007568 -16.58562,14.676957 8.31958,23.878532 24.90521,9.201575 -1.70922,-24.98378 21.84634,-12.733312 23.55556,12.250468 -19.71457,10.091176 2.11986,25.19734 21.83442,15.106163 4.55769,-24.623934 24.32664,-6.900309 19.76895,17.723626 -21.60477,4.871331 -4.21307,24.932907 17.39171,20.061576 10.53823,-22.716876 25.27841,-0.633733 14.74019,22.083143 -22.13746,-0.654599 -10.28126,23.101846 11.8562,23.756445 15.85661,-19.382432 24.64185,5.672663 8.78524,25.055092 -21.27919,-6.139398 -15.70346,19.819212 5.57573,25.95861 20.17866,-14.83012 22.45694,11.62262 2.27829,26.45275 -19.08385,-11.23843 -20.13894,15.29127 -1.05508,26.5297 23.23281,-9.34598 18.86099,16.84229 -4.37182,26.18827 -15.68941,-15.63132 -23.30902,9.80251 -7.61961,25.43383 24.82716,-3.27459 14.07993,21.0037 -10.74723,24.27829 -11.30915,-19.04203 -25.01451,3.69783 -13.70536,22.73986 24.86152,3.00255 8.41417,23.84536 -16.44735,20.84282 -6.21829,-21.25626 -25.14825,-2.6392 z"
       inkscape:transform-center-x="4.6445934"
       inkscape:transform-center-y="-4.9672906"
       transform="matrix(0.79052473,0,0,0.76092991,91.032766,81.365422)" />
    <path
       sodipodi:type="star"
       style="fill:#6c5353;fill-opacity:1;stroke-width:0.34113979"
       id="path18"
       sodipodi:sides="20"
       sodipodi:cx="86.934525"
       sodipodi:cy="88.357147"
       sodipodi:r1="8.4518042"
       sodipodi:r2="7.0995154"
       sodipodi:arg1="1.3089969"
       sodipodi:arg2="1.4660766"
       inkscape:flatsided="false"
       inkscape:rounded="0"
       inkscape:randomized="0"
       d="m 89.122013,96.520963 -1.445387,-1.103192 -1.184434,1.379597 -1.03374,-1.495847 -1.552783,0.946065 -0.520902,-1.742078 -1.769135,0.419925 0.04292,-1.817783 -1.812311,-0.14732 0.602549,-1.71555 -1.678085,-0.700145 1.103192,-1.445387 -1.379598,-1.184434 1.495848,-1.033739 -0.946066,-1.552783 1.742079,-0.520903 -0.419925,-1.769134 1.817783,0.04292 0.14732,-1.812311 1.71555,0.602549 0.700144,-1.678086 1.445387,1.103193 1.184434,-1.379598 1.03374,1.495847 1.552783,-0.946065 0.520902,1.742079 1.769135,-0.419925 -0.04292,1.817782 1.812311,0.14732 -0.602549,1.71555 1.678085,0.700145 -1.103192,1.445387 1.379598,1.184434 -1.495848,1.03374 0.946066,1.552783 -1.742079,0.520902 0.419925,1.769135 -1.817783,-0.04292 -0.14732,1.81231 -1.71555,-0.602549 z"
       inkscape:transform-center-x="1.2516655e-006"
       transform="matrix(0.79052473,0,0,0.76092991,91.032766,81.365422)" />
    <path
       inkscape:transform-center-y="-4.9672906"
       inkscape:transform-center-x="4.6445934"
       d="m 183.66618,216.59691 c -18.92995,18.61706 23.33375,9.09103 2.21973,25.18874 -21.11402,16.09771 -0.73672,-22.13489 -23.70183,-8.8104 -22.96511,13.32448 20.33983,14.60828 -4.11419,24.94941 -24.45402,10.34113 4.79115,-21.62269 -20.76613,-14.42801 -25.55729,7.19468 16.06788,19.20765 -10.18961,23.14242 -26.25749,3.93477 10.01798,-19.75186 -16.52562,-19.13905 -26.543604,0.61281 10.78633,22.60012 -15.624771,19.8813 -26.411101,-2.71881 14.615331,-16.63995 -11.246753,-22.64752 -25.862083,-6.00757 4.827039,24.57256 -20.078166,15.37098 -24.905205,-9.20158 18.294351,-12.4825 -5.261206,-24.73296 -23.555557,-12.25047 -1.435557,25.00099 -23.269981,9.89483 -21.834423,-15.10616 20.823871,-7.54071 1.054923,-25.26434 -19.768948,-17.72362 -7.607952,23.85854 -24.999657,3.79696 -17.3917047,-20.06157 22.04495,-2.12512 7.304766,-24.20826 C 3.7275013,177.50786 5.1653743,220.80796 -6.6908272,197.05152 -18.547029,173.29507 15.190037,200.47551 6.4047972,175.42042 -2.3804423,150.36532 -11.75604,192.66266 -17.331769,166.70404 -22.907498,140.74543 3.0101537,175.46202 0.73186748,149.00928 -1.5464188,122.55653 -21.146383,161.1934 -20.091297,134.6637 -19.03621,108.134 -2.566473,148.20536 1.8053471,122.01709 6.1771672,95.828822 -22.415626,128.37753 -14.796019,102.9437 -7.1764117,77.509864 -1.1894435,120.41816 9.5577853,96.139876 20.305014,71.861587 -15.484018,96.276977 -1.7786577,73.537115 11.926702,50.797253 7.0547184,93.846409 23.502068,73.003595 39.949418,52.16078 -0.78709653,66.908745 18.142858,48.291682 37.072813,29.674619 21.648002,70.159694 42.762025,54.061985 63.876048,37.964275 20.751676,42.118146 43.716787,28.793661 66.681898,15.469175 41.673457,50.846342 66.127481,40.505216 90.581506,30.16409 47.77894,23.462865 73.336225,16.268183 98.893509,9.0735016 65.87281,37.119883 92.1303,33.185111 118.38779,29.250339 78.596473,12.11508 105.14007,11.502271 c 26.5436,-0.612809 -12.414542,18.34053 13.99656,21.059348 26.4111,2.718819 -7.86873,-23.7738034 17.99335,-17.766235 25.86208,6.007568 -16.58562,14.676957 8.31958,23.878532 24.90521,9.201575 -1.70922,-24.98378 21.84634,-12.733312 23.55556,12.250468 -19.71457,10.091176 2.11986,25.19734 21.83442,15.106163 4.55769,-24.623934 24.32664,-6.900309 19.76895,17.723626 -21.60477,4.871331 -4.21307,24.932907 17.39171,20.061576 10.53823,-22.716876 25.27841,-0.633733 14.74019,22.083143 -22.13746,-0.654599 -10.28126,23.101846 11.8562,23.756445 15.85661,-19.382432 24.64185,5.672663 8.78524,25.055092 -21.27919,-6.139398 -15.70346,19.819212 5.57573,25.95861 20.17866,-14.83012 22.45694,11.62262 2.27829,26.45275 -19.08385,-11.23843 -20.13894,15.29127 -1.05508,26.5297 23.23281,-9.34598 18.86099,16.84229 -4.37182,26.18827 -15.68941,-15.63132 -23.30902,9.80251 -7.61961,25.43383 24.82716,-3.27459 14.07993,21.0037 -10.74723,24.27829 -11.30915,-19.04203 -25.01451,3.69783 -13.70536,22.73986 24.86152,3.00255 8.41417,23.84536 -16.44735,20.84282 -6.21829,-21.25626 -25.14825,-2.6392 z"
       inkscape:randomized="0"
       inkscape:rounded="1.05"
       inkscape:flatsided="false"
       sodipodi:arg2="0.91939501"
       sodipodi:arg1="0.7937313"
       sodipodi:r2="128.29382"
       sodipodi:r1="107.76681"
       sodipodi:cy="139.76192"
       sodipodi:cx="108.10119"
       sodipodi:sides="25"
       id="path20"
       style="fill:#6c5353;fill-opacity:1;stroke-width:0.34113979"
       sodipodi:type="star"
       transform="matrix(0.79052473,0,0,0.76092991,91.032766,81.365422)" />
    <path
       sodipodi:type="star"
       style="fill:#6c5353;fill-opacity:1;stroke-width:0.34113979"
       id="path22"
       sodipodi:sides="25"
       sodipodi:cx="108.10119"
       sodipodi:cy="139.76192"
       sodipodi:r1="107.76681"
       sodipodi:r2="128.29382"
       sodipodi:arg1="0.7937313"
       sodipodi:arg2="0.91939501"
       inkscape:flatsided="false"
       inkscape:rounded="1.05"
       inkscape:randomized="0"
       d="m 183.66618,216.59691 c -18.92995,18.61706 23.33375,9.09103 2.21973,25.18874 -21.11402,16.09771 -0.73672,-22.13489 -23.70183,-8.8104 -22.96511,13.32448 20.33983,14.60828 -4.11419,24.94941 -24.45402,10.34113 4.79115,-21.62269 -20.76613,-14.42801 -25.55729,7.19468 16.06788,19.20765 -10.18961,23.14242 -26.25749,3.93477 10.01798,-19.75186 -16.52562,-19.13905 -26.543604,0.61281 10.78633,22.60012 -15.624771,19.8813 -26.411101,-2.71881 14.615331,-16.63995 -11.246753,-22.64752 -25.862083,-6.00757 4.827039,24.57256 -20.078166,15.37098 -24.905205,-9.20158 18.294351,-12.4825 -5.261206,-24.73296 -23.555557,-12.25047 -1.435557,25.00099 -23.269981,9.89483 -21.834423,-15.10616 20.823871,-7.54071 1.054923,-25.26434 -19.768948,-17.72362 -7.607952,23.85854 -24.999657,3.79696 -17.3917047,-20.06157 22.04495,-2.12512 7.304766,-24.20826 C 3.7275013,177.50786 5.1653743,220.80796 -6.6908272,197.05152 -18.547029,173.29507 15.190037,200.47551 6.4047972,175.42042 -2.3804423,150.36532 -11.75604,192.66266 -17.331769,166.70404 -22.907498,140.74543 3.0101537,175.46202 0.73186748,149.00928 -1.5464188,122.55653 -21.146383,161.1934 -20.091297,134.6637 -19.03621,108.134 -2.566473,148.20536 1.8053471,122.01709 6.1771672,95.828822 -22.415626,128.37753 -14.796019,102.9437 -7.1764117,77.509864 -1.1894435,120.41816 9.5577853,96.139876 20.305014,71.861587 -15.484018,96.276977 -1.7786577,73.537115 11.926702,50.797253 7.0547184,93.846409 23.502068,73.003595 39.949418,52.16078 -0.78709653,66.908745 18.142858,48.291682 37.072813,29.674619 21.648002,70.159694 42.762025,54.061985 63.876048,37.964275 20.751676,42.118146 43.716787,28.793661 66.681898,15.469175 41.673457,50.846342 66.127481,40.505216 90.581506,30.16409 47.77894,23.462865 73.336225,16.268183 98.893509,9.0735016 65.87281,37.119883 92.1303,33.185111 118.38779,29.250339 78.596473,12.11508 105.14007,11.502271 c 26.5436,-0.612809 -12.414542,18.34053 13.99656,21.059348 26.4111,2.718819 -7.86873,-23.7738034 17.99335,-17.766235 25.86208,6.007568 -16.58562,14.676957 8.31958,23.878532 24.90521,9.201575 -1.70922,-24.98378 21.84634,-12.733312 23.55556,12.250468 -19.71457,10.091176 2.11986,25.19734 21.83442,15.106163 4.55769,-24.623934 24.32664,-6.900309 19.76895,17.723626 -21.60477,4.871331 -4.21307,24.932907 17.39171,20.061576 10.53823,-22.716876 25.27841,-0.633733 14.74019,22.083143 -22.13746,-0.654599 -10.28126,23.101846 11.8562,23.756445 15.85661,-19.382432 24.64185,5.672663 8.78524,25.055092 -21.27919,-6.139398 -15.70346,19.819212 5.57573,25.95861 20.17866,-14.83012 22.45694,11.62262 2.27829,26.45275 -19.08385,-11.23843 -20.13894,15.29127 -1.05508,26.5297 23.23281,-9.34598 18.86099,16.84229 -4.37182,26.18827 -15.68941,-15.63132 -23.30902,9.80251 -7.61961,25.43383 24.82716,-3.27459 14.07993,21.0037 -10.74723,24.27829 -11.30915,-19.04203 -25.01451,3.69783 -13.70536,22.73986 24.86152,3.00255 8.41417,23.84536 -16.44735,20.84282 -6.21829,-21.25626 -25.14825,-2.6392 z"
       inkscape:transform-center-x="4.6445934"
       inkscape:transform-center-y="-4.9672906"
       transform="matrix(0.79052473,0,0,0.76092991,91.032766,81.365422)" />
    <path
       inkscape:transform-center-y="-4.9672906"
       inkscape:transform-center-x="4.6445934"
       d="m 183.66618,216.59691 c -18.92995,18.61706 23.33375,9.09103 2.21973,25.18874 -21.11402,16.09771 -0.73672,-22.13489 -23.70183,-8.8104 -22.96511,13.32448 20.33983,14.60828 -4.11419,24.94941 -24.45402,10.34113 4.79115,-21.62269 -20.76613,-14.42801 -25.55729,7.19468 16.06788,19.20765 -10.18961,23.14242 -26.25749,3.93477 10.01798,-19.75186 -16.52562,-19.13905 -26.543604,0.61281 10.78633,22.60012 -15.624771,19.8813 -26.411101,-2.71881 14.615331,-16.63995 -11.246753,-22.64752 -25.862083,-6.00757 4.827039,24.57256 -20.078166,15.37098 -24.905205,-9.20158 18.294351,-12.4825 -5.261206,-24.73296 -23.555557,-12.25047 -1.435557,25.00099 -23.269981,9.89483 -21.834423,-15.10616 20.823871,-7.54071 1.054923,-25.26434 -19.768948,-17.72362 -7.607952,23.85854 -24.999657,3.79696 -17.3917047,-20.06157 22.04495,-2.12512 7.304766,-24.20826 C 3.7275013,177.50786 5.1653743,220.80796 -6.6908272,197.05152 -18.547029,173.29507 15.190037,200.47551 6.4047972,175.42042 -2.3804423,150.36532 -11.75604,192.66266 -17.331769,166.70404 -22.907498,140.74543 3.0101537,175.46202 0.73186748,149.00928 -1.5464188,122.55653 -21.146383,161.1934 -20.091297,134.6637 -19.03621,108.134 -2.566473,148.20536 1.8053471,122.01709 6.1771672,95.828822 -22.415626,128.37753 -14.796019,102.9437 -7.1764117,77.509864 -1.1894435,120.41816 9.5577853,96.139876 20.305014,71.861587 -15.484018,96.276977 -1.7786577,73.537115 11.926702,50.797253 7.0547184,93.846409 23.502068,73.003595 39.949418,52.16078 -0.78709653,66.908745 18.142858,48.291682 37.072813,29.674619 21.648002,70.159694 42.762025,54.061985 63.876048,37.964275 20.751676,42.118146 43.716787,28.793661 66.681898,15.469175 41.673457,50.846342 66.127481,40.505216 90.581506,30.16409 47.77894,23.462865 73.336225,16.268183 98.893509,9.0735016 65.87281,37.119883 92.1303,33.185111 118.38779,29.250339 78.596473,12.11508 105.14007,11.502271 c 26.5436,-0.612809 -12.414542,18.34053 13.99656,21.059348 26.4111,2.718819 -7.86873,-23.7738034 17.99335,-17.766235 25.86208,6.007568 -16.58562,14.676957 8.31958,23.878532 24.90521,9.201575 -1.70922,-24.98378 21.84634,-12.733312 23.55556,12.250468 -19.71457,10.091176 2.11986,25.19734 21.83442,15.106163 4.55769,-24.623934 24.32664,-6.900309 19.76895,17.723626 -21.60477,4.871331 -4.21307,24.932907 17.39171,20.061576 10.53823,-22.716876 25.27841,-0.633733 14.74019,22.083143 -22.13746,-0.654599 -10.28126,23.101846 11.8562,23.756445 15.85661,-19.382432 24.64185,5.672663 8.78524,25.055092 -21.27919,-6.139398 -15.70346,19.819212 5.57573,25.95861 20.17866,-14.83012 22.45694,11.62262 2.27829,26.45275 -19.08385,-11.23843 -20.13894,15.29127 -1.05508,26.5297 23.23281,-9.34598 18.86099,16.84229 -4.37182,26.18827 -15.68941,-15.63132 -23.30902,9.80251 -7.61961,25.43383 24.82716,-3.27459 14.07993,21.0037 -10.74723,24.27829 -11.30915,-19.04203 -25.01451,3.69783 -13.70536,22.73986 24.86152,3.00255 8.41417,23.84536 -16.44735,20.84282 -6.21829,-21.25626 -25.14825,-2.6392 z"
       inkscape:randomized="0"
       inkscape:rounded="1.05"
       inkscape:flatsided="false"
       sodipodi:arg2="0.91939501"
       sodipodi:arg1="0.7937313"
       sodipodi:r2="128.29382"
       sodipodi:r1="107.76681"
       sodipodi:cy="139.76192"
       sodipodi:cx="108.10119"
       sodipodi:sides="25"
       id="path24"
       style="fill:#280b0b;fill-opacity:1;stroke-width:0.34113979"
       sodipodi:type="star"
       transform="matrix(0.79052473,0,0,0.76092991,91.032766,81.365422)" />
    <path
       sodipodi:type="star"
       style="fill:#aa0000;fill-opacity:1;stroke-width:0.33965036"
       id="path28"
       sodipodi:sides="25"
       sodipodi:cx="111.13896"
       sodipodi:cy="139.96155"
       sodipodi:r1="78.478928"
       sodipodi:r2="96.887566"
       sodipodi:arg1="0.7937313"
       sodipodi:arg2="0.91939501"
       inkscape:flatsided="false"
       inkscape:rounded="2.43"
       inkscape:randomized="0"
       d="m 166.16759,195.91503 c -37.10976,36.49637 45.10578,-10.46261 3.71444,21.0949 -41.39135,31.5575 25.66184,-35.28867 -19.35833,-9.16772 -45.02017,26.12095 46.29065,1.08345 -1.64835,21.35591 -47.93899,20.27245 33.63156,-27.79817 -16.47023,-13.69392 -50.10179,14.10426 44.5669,12.56143 -6.90756,20.27504 -51.474454,7.71362 39.48809,-18.561 -12.54725,-17.35967 -52.035334,1.20133 40.04285,23.25012 -11.73274,17.92022 -51.775592,-5.32989 42.86343,-8.15759 -7.83588,-19.93466 -50.699312,-11.77707 33.00276,32.47793 -15.820719,14.43941 -48.823473,-18.03851 43.545509,2.7584 -2.63215,-21.25708 -46.177661,-24.01548 23.888982,39.66503 -18.914617,10.05132 -42.803599,-29.6137 41.491463,13.50106 2.736965,-21.24384 -38.754499,-34.74491 13.274175,44.35982 -20.820042,5.03166 -34.0942156,-39.32815 36.830355,23.39541 7.934107,-19.89577 -28.896248,-43.29118 1.825303,46.26733 -21.417266,-0.30415 -23.2425681,-46.57147 29.85506,31.81974 12.63272,-17.29757 C 19.858348,116.81179 27.342429,211.1968 16.411923,160.30826 5.4814184,109.41972 37.415785,198.55297 32.949495,146.69575 28.483206,94.838519 12.259564,188.11946 14.327927,136.11137 16.396289,84.103282 25.16084,178.378 33.731234,127.03925 42.301629,75.700492 3.3896562,162.01619 18.326923,112.15641 33.26419,62.296627 18.308216,155.78919 39.376786,108.19471 60.445356,60.600223 1.2900332,134.52714 28.157642,89.948541 55.02525,45.369946 17.28849,132.20587 49.531418,91.346193 81.774347,50.486517 6.0926224,107.37955 43.202381,70.883176 80.31214,34.386802 22.165734,109.10986 63.55708,77.552361 104.94843,45.994857 17.495659,82.279212 62.515826,56.15826 107.53599,30.037308 32.633493,87.952385 80.572486,67.679928 128.51148,47.40747 34.782649,60.803267 84.884442,46.699012 134.98623,32.594758 48.03404,70.062832 99.508496,62.349214 150.98295,54.635596 56.867387,44.301127 108.90273,43.099793 c 52.03533,-1.201334 -41.503029,13.46548 10.27256,18.795376 51.77559,5.329896 -36.813082,-28.085486 13.88623,-16.308416 50.69931,11.777071 -43.54786,2.721055 5.27561,20.759569 48.82348,18.038513 -28.67195,-36.35817 17.50571,-12.342692 46.17766,24.015477 -42.85642,-8.194345 -0.0528,21.41936 42.80359,29.6137 -18.72927,-42.346337 20.02523,-7.601432 38.7545,34.744902 -39.47216,-18.594863 -5.37794,20.733294 34.09421,39.328158 -7.60975,-45.673727 21.2865,-2.382545 28.89625,43.291183 -33.60771,-27.826997 -10.36514,18.744483 23.24256,46.57148 3.98792,-46.131272 21.21026,2.98604 17.22234,49.11732 -25.63157,-35.310658 -14.70107,15.57788 10.93051,50.88854 15.33502,-43.690211 19.80131,8.16701 4.46629,51.85723 -16.04491,-40.575619 -18.11327,11.43247 -2.06836,52.00809 25.71855,-38.50394 17.14816,12.83481 -8.5704,51.33876 -5.45008,-43.29107 -20.38735,6.56871 -14.93726,49.85978 34.4861,-30.89832 13.41753,16.69616 -21.06857,47.59448 5.4872,-43.28638 -21.38041,1.29221 -26.86761,44.5786 41.08676,-21.35125 8.84383,19.50842 -32.24293,40.85968 16.07969,-40.56185 -21.03007,-4.06547 z"
       inkscape:transform-center-x="3.5076022"
       inkscape:transform-center-y="-3.7843005"
       transform="matrix(0.79052473,0,0,0.76761856,89.239968,80.933876)" />
    <rect
       y="79.038315"
       x="340.03012"
       height="218.3813"
       width="17.3869"
       id="rect3763"
       style="fill:#008080;fill-opacity:1;stroke-width:0.26458332" />
    <text
       xml:space="preserve"
       style="font-style:normal;font-variant:normal;font-weight:normal;font-stretch:ultra-expanded;font-size:16.21827126px;line-height:1.25;font-family:'Wide Latin';-inkscape-font-specification:'Wide Latin Ultra-Expanded';letter-spacing:0px;word-spacing:0px;fill:#000000;fill-opacity:1;stroke:none;stroke-width:0.26458335"
       x="48.32386"
       y="-215.19162"
       id="text3767"
       transform="scale(1.0945273,0.91363641)"><tspan
         sodipodi:role="line"
         x="48.32386"
         y="-200.85252"
         style="font-style:normal;font-variant:normal;font-weight:normal;font-stretch:ultra-expanded;font-size:16.21827126px;line-height:26.04999924;font-family:'Wide Latin';-inkscape-font-specification:'Wide Latin Ultra-Expanded';stroke-width:0.26458335"
         id="tspan3769" /><tspan
         sodipodi:role="line"
         x="48.32386"
         y="-180.5797"
         style="font-style:normal;font-variant:normal;font-weight:normal;font-stretch:ultra-expanded;font-size:16.21827126px;line-height:26.04999924;font-family:'Wide Latin';-inkscape-font-specification:'Wide Latin Ultra-Expanded';stroke-width:0.26458335"
         id="tspan3771" /></text>
    <g
       id="g3920"
       transform="rotate(-6.8942059,2595.9328,10.133806)">
      <rect
         y="-116.39533"
         x="34.42551"
         height="31.25345"
         width="288.01785"
         id="rect3783"
         style="fill:#800000;fill-opacity:1;stroke-width:0.26458332" />
      <text
         transform="scale(1.1144164,0.89733067)"
         id="text3781"
         y="-103.86061"
         x="152.4828"
         style="font-style:normal;font-variant:normal;font-weight:normal;font-stretch:normal;font-size:15.72565365px;line-height:1.25;font-family:'Wide Latin';-inkscape-font-specification:'Wide Latin';letter-spacing:0px;word-spacing:0px;fill:#e6e6e6;fill-opacity:1;stroke:none;stroke-width:0.26458335;"
         xml:space="preserve"><tspan
           style="font-style:normal;font-variant:normal;font-weight:normal;font-stretch:normal;font-family:'Wide Latin';-inkscape-font-specification:'Wide Latin';fill:#e6e6e6;stroke-width:0.26458335;"
           y="-103.86061"
           x="152.4828"
           id="tspan3779"
           sodipodi:role="line">EDILAD</tspan></text>
      <text
         transform="scale(1.213481,0.82407554)"
         id="text3777"
         y="-124.63853"
         x="41.755901"
         style="font-style:normal;font-variant:normal;font-weight:normal;font-stretch:normal;font-size:17.12356377px;line-height:1.25;font-family:'Wide Latin';-inkscape-font-specification:'Wide Latin';letter-spacing:0px;word-spacing:0px;fill:#e6e6e6;fill-opacity:1;stroke:none;stroke-width:0.26458332;"
         xml:space="preserve"><tspan
           style="font-style:normal;font-variant:normal;font-weight:normal;font-stretch:normal;font-family:'Wide Latin';-inkscape-font-specification:'Wide Latin';fill:#e6e6e6;stroke-width:0.26458332;"
           y="-124.63853"
           x="41.755901"
           id="tspan3775"
           sodipodi:role="line">E.L.B</tspan></text>
      <path
         inkscape:connector-curvature="0"
         d="m 34.727853,-116.61578 c 0.764601,0.002 1.529205,0.002 2.293805,0.002 0.788234,-8e-5 1.57647,-1.6e-4 2.364703,-2e-4 0.75786,-4e-5 1.515719,-4e-5 2.273578,-4e-5 0.125905,0 0.251809,0 0.377714,0 0,0 -0.29859,0.21694 -0.29859,0.21694 v 0 c -0.125902,0 -0.251807,0 -0.377711,0 -0.757825,-1e-5 -1.515648,-1e-5 -2.273472,-4e-5 -0.788043,-5e-5 -1.576086,-1.3e-4 -2.364129,-2.1e-4 -0.76608,-4e-5 -1.532163,-5.3e-4 -2.29824,0.002 0,0 0.302342,-0.21966 0.302342,-0.21966 z"
         id="path3843"
         style="fill:#ff0000;fill-opacity:1;stroke-width:0.26458332" />
      <path
         inkscape:connector-curvature="0"
         id="path3857"
         d="m 34.395833,-100.25298 c -20.78869,0 -20.410714,0 -20.410714,0 0,0 -1.889881,0 -0.377976,0"
         style="fill:#ff0000;stroke:#000000;stroke-width:0.26458332px;stroke-linecap:butt;stroke-linejoin:miter;stroke-opacity:1" />
      <path
         inkscape:connector-curvature="0"
         id="path3861"
         d="m 13.607143,-100.25298 c 11.339285,-16.63095 11.339285,-16.63095 11.339285,-16.63095"
         style="fill:#ff0000;stroke:#000000;stroke-width:0.26458332px;stroke-linecap:butt;stroke-linejoin:miter;stroke-opacity:1" />
      <path
         inkscape:connector-curvature="0"
         id="path3863"
         d="m 24.946428,-116.88393 c -10.583333,-15.11905 -10.583333,-15.11905 -10.583333,-15.11905 v 0"
         style="fill:#ff0000;stroke:#000000;stroke-width:0.26458332px;stroke-linecap:butt;stroke-linejoin:miter;stroke-opacity:1" />
      <path
         inkscape:connector-curvature="0"
         id="path3865"
         d="m 14.363095,-132.00298 c 36.285714,0 35.907738,0 35.907738,0"
         style="fill:#ff0000;stroke:#000000;stroke-width:0.26458332px;stroke-linecap:butt;stroke-linejoin:miter;stroke-opacity:1" />
      <path
         inkscape:connector-curvature="0"
         id="path3867"
         d="m 50.270833,-132.00298 c -15.54298,15.38799 -15.54298,15.3872 -15.54298,15.3872"
         style="fill:#ff0000;stroke:#000000;stroke-width:0.26458332px;stroke-linecap:butt;stroke-linejoin:miter;stroke-opacity:1" />
      <path
         inkscape:connector-curvature="0"
         id="path3869"
         d="m 16.069138,-104.20396 c 1.353182,-1.94402 3.897908,-5.62914 5.654947,-8.18918 l 3.194616,-4.65459 -3.973838,-5.66258 c -2.185609,-3.11441 -4.560621,-6.47933 -5.277802,-7.47762 l -1.303966,-1.81505 H 31.93327 49.503446 l -7.92073,7.69781 -7.920732,7.69781 v 7.96901 7.96899 H 23.635394 13.608805 Z"
         style="fill:#800000;fill-opacity:1;stroke-width:0.26458332" />
      <path
         inkscape:connector-curvature="0"
         id="path3873"
         d="m 49.503446,-131.66341 c 0.389411,14.77948 0.389411,14.77948 0.389411,14.77948"
         style="fill:none;stroke:#000000;stroke-width:0.26458332px;stroke-linecap:butt;stroke-linejoin:miter;stroke-opacity:1" />
      <path
         transform="matrix(0.26458333,0,0,0.26458333,0,81.1)"
         inkscape:connector-curvature="0"
         id="path3875"
         d="m 147.86473,-748.34372 -12.52573,-0.80147 24.96332,-24.92235 c 16.8281,-16.80049 25.20667,-24.24933 25.71007,-22.85714 0.41072,1.13586 0.92095,12.83392 1.13385,25.99568 l 0.38708,23.93048 -13.57143,-0.27187 c -7.46428,-0.14952 -19.208,-0.63252 -26.09716,-1.07333 z"
         style="fill:#000000;fill-opacity:1;stroke-width:1" />
      <path
         style="fill:#ff0000;fill-opacity:1;stroke-width:0.26458332"
         id="path3879"
         d="m 321.44118,-116.22246 c -0.94035,0.002 -1.88069,0.002 -2.82102,0.002 -0.9694,-8e-5 -1.93882,-1.6e-4 -2.90822,-2e-4 -0.93205,-4e-5 -1.86409,-4e-5 -2.79614,-4e-5 -0.15485,0 -0.30969,0 -0.46453,0 0,0 0.36722,0.21694 0.36722,0.21694 v 0 c 0.15484,0 0.30968,0 0.46452,0 0.93201,-1e-5 1.86401,-1e-5 2.79602,-4e-5 0.96916,-5e-5 1.93833,-1.3e-4 2.90751,-2.1e-4 0.94216,-4e-5 1.88432,-5.3e-4 2.82648,0.002 0,0 -0.37184,-0.21966 -0.37184,-0.21966 z"
         inkscape:connector-curvature="0" />
      <path
         style="fill:#ff0000;stroke:#000000;stroke-width:0.26458332px;stroke-linecap:butt;stroke-linejoin:miter;stroke-opacity:1"
         d="m 321.84952,-99.859662 c 25.56684,0 25.10198,0 25.10198,0 0,0 2.32426,0 0.46486,0"
         id="path3881"
         inkscape:connector-curvature="0" />
      <path
         style="fill:#ff0000;stroke:#000000;stroke-width:0.26458332px;stroke-linecap:butt;stroke-linejoin:miter;stroke-opacity:1"
         d="M 347.41636,-99.859662 C 333.4708,-116.49061 333.4708,-116.49061 333.4708,-116.49061"
         id="path3883"
         inkscape:connector-curvature="0" />
      <path
         style="fill:#ff0000;stroke:#000000;stroke-width:0.26458332px;stroke-linecap:butt;stroke-linejoin:miter;stroke-opacity:1"
         d="m 333.4708,-116.49061 c 13.01585,-15.11905 13.01585,-15.11905 13.01585,-15.11905 v 0"
         id="path3885"
         inkscape:connector-curvature="0" />
      <path
         style="fill:#ff0000;stroke:#000000;stroke-width:0.26458332px;stroke-linecap:butt;stroke-linejoin:miter;stroke-opacity:1"
         d="m 346.48665,-131.60966 c -44.62576,0 -44.1609,0 -44.1609,0"
         id="path3887"
         inkscape:connector-curvature="0" />
      <path
         style="fill:#ff0000;stroke:#000000;stroke-width:0.26458332px;stroke-linecap:butt;stroke-linejoin:miter;stroke-opacity:1"
         d="m 302.32575,-131.60966 c 19.11543,15.38799 19.11543,15.3872 19.11543,15.3872"
         id="path3889"
         inkscape:connector-curvature="0" />
      <path
         style="fill:#800000;fill-opacity:1;stroke-width:0.26458332"
         d="m 344.38848,-103.81064 c -1.6642,-1.94402 -4.79382,-5.62914 -6.9547,-8.18918 l -3.92887,-4.65459 4.8872,-5.66258 c 2.68795,-3.11441 5.60885,-6.47933 6.49087,-7.47762 l 1.60367,-1.81505 H 324.87808 303.2695 l 9.74126,7.69781 9.74127,7.69781 v 7.96901 7.96899 h 12.33114 12.33114 z"
         id="path3891"
         inkscape:connector-curvature="0" />
      <path
         style="fill:none;stroke:#000000;stroke-width:0.26458332px;stroke-linecap:butt;stroke-linejoin:miter;stroke-opacity:1"
         d="m 303.2695,-131.27009 c -0.47891,14.77948 -0.47891,14.77948 -0.47891,14.77948"
         id="path3893"
         inkscape:connector-curvature="0" />
      <path
         style="fill:#000000;fill-opacity:1;stroke-width:0.26458332"
         d="m 316.0364,-116.50595 4.07583,-0.21206 -8.12297,-6.59404 c -5.47581,-4.44513 -8.20217,-6.41597 -8.36597,-6.04762 -0.13365,0.30053 -0.29967,3.39565 -0.36895,6.87803 l -0.12595,6.3316 4.41609,-0.0719 c 2.42885,-0.0396 6.25021,-0.16735 8.49192,-0.28398 z"
         id="path3895"
         inkscape:connector-curvature="0" />
      <text
         xml:space="preserve"
         style="font-style:normal;font-variant:normal;font-weight:normal;font-stretch:normal;font-size:10.67931843px;line-height:1.25;font-family:'Rockwell Extra Bold';-inkscape-font-specification:'Rockwell Extra Bold, ';letter-spacing:0px;word-spacing:0px;fill:#e6e6e6;fill-opacity:1;stroke:none;stroke-width:0.26458335"
         x="117.15662"
         y="-118.02132"
         id="text3924"
         transform="matrix(1.0585099,-0.07934411,0.01733773,0.94342463,0,0)"><tspan
           sodipodi:role="line"
           id="tspan3922"
           x="117.15662"
           y="-108.53473"
           style="font-style:normal;font-variant:normal;font-weight:normal;font-stretch:normal;font-size:10.67931843px;font-family:'Rockwell Extra Bold';-inkscape-font-specification:'Rockwell Extra Bold, ';fill:#e6e6e6;stroke-width:0.26458335" /></text>
    </g>
    <text
       xml:space="preserve"
       style="font-style:normal;font-variant:normal;font-weight:normal;font-stretch:normal;font-size:10.9926405px;line-height:1.25;font-family:'News701 BT';-inkscape-font-specification:'News701 BT';letter-spacing:0px;word-spacing:0px;fill:#ececec;fill-opacity:1;stroke:none;stroke-width:0.26458332;"
       x="96.768791"
       y="198.93037"
       id="text3928"
       transform="matrix(1.0705028,-0.11555101,0.13450935,0.91962145,0,0)"
       inkscape:transform-center-y="-13.783925"
       inkscape:transform-center-x="3.3453902e-006"><tspan
         sodipodi:role="line"
         id="tspan3926"
         x="96.768791"
         y="198.93037"
         style="font-style:normal;font-variant:normal;font-weight:normal;font-stretch:normal;font-size:10.9926405px;font-family:'News701 BT';-inkscape-font-specification:'News701 BT';stroke-width:0.26458332;fill:#ececec;">Desarrollo Web</tspan></text>
    <text
       xml:space="preserve"
       style="font-style:normal;font-variant:normal;font-weight:normal;font-stretch:normal;font-size:12.34014034px;line-height:1.25;font-family:'Javanese Text';-inkscape-font-specification:'Javanese Text';letter-spacing:0px;word-spacing:0px;fill:#e6e6e6;fill-opacity:1;stroke:none;stroke-width:0.26458332;"
       x="92.460129"
       y="251.96248"
       id="text3932"
       transform="matrix(1.053021,-0.12736696,0.1438675,0.93224733,0,0)"><tspan
         sodipodi:role="line"
         id="tspan3930"
         x="92.460129"
         y="251.96248"
         style="font-style:normal;font-variant:normal;font-weight:normal;font-stretch:normal;font-size:12.34014034px;font-family:'Javanese Text';-inkscape-font-specification:'Javanese Text';stroke-width:0.26458332;fill:#e6e6e6;">Curriculum Vitae</tspan></text>
  </g>
</svg>
